---
title: 丽莎1976-月亮亮回想曲（2014新世纪复刻版）【丽风】【WAV+CUE】
date: 2023-10-31 08:22:23
categories: WAV车载音乐、镜像
tags: 华语中文
---
# 丽莎1976-月亮亮回想曲（2014新世纪复刻版）【丽风】【WAV+CUE】

REM DISCID 8306F20C
REM COMMENT "ExactAudioCopy v1.0b3"
PERFORMER "丽莎"
TITLE "月亮亮 回想曲"
FILE "丽莎 - 月亮亮 回想曲.wav" WAVE
TRACK 01 AUDIO
TITLE "回想曲"
PERFORMER "丽莎"
FLAGS DCP
INDEX 01 00:00:00
TRACK 02 AUDIO
TITLE "细唱风流调"
PERFORMER "丽莎"
FLAGS DCP
INDEX 00 02:04:53
INDEX 01 02:06:53
TRACK 03 AUDIO
TITLE "佳期近"
PERFORMER "丽莎"
FLAGS DCP
INDEX 00 05:07:37
INDEX 01 05:09:37
TRACK 04 AUDIO
TITLE "爱像雷电"
PERFORMER "丽莎"
FLAGS DCP
INDEX 00 07:40:40
INDEX 01 07:42:40
TRACK 05 AUDIO
TITLE "笑微微"
PERFORMER "丽莎"
FLAGS DCP
INDEX 00 10:40:54
INDEX 01 10:42:54
TRACK 06 AUDIO
TITLE "良辰莫错过"
PERFORMER "丽莎"
FLAGS DCP
INDEX 00 13:08:59
INDEX 01 13:10:59
TRACK 07 AUDIO
TITLE "月亮亮"
PERFORMER "丽莎"
FLAGS DCP
INDEX 00 15:09:00
INDEX 01 15:11:00
TRACK 08 AUDIO
TITLE "期待"
PERFORMER "丽莎"
FLAGS DCP
INDEX 00 17:08:64
INDEX 01 17:10:64
TRACK 09 AUDIO
TITLE "心底情人"
PERFORMER "丽莎"
FLAGS DCP
INDEX 00 19:50:21
INDEX 01 19:52:21
TRACK 10 AUDIO
TITLE "叫一声哥哥"
PERFORMER "丽莎"
FLAGS DCP
INDEX 00 21:57:73
INDEX 01 21:59:73
TRACK 11 AUDIO
TITLE "鹊桥会"
PERFORMER "丽莎"
FLAGS DCP
INDEX 00 24:16:16
INDEX 01 24:18:16
TRACK 12 AUDIO
TITLE "白兰花下"
PERFORMER "丽莎"
FLAGS DCP
INDEX 00 27:11:62
INDEX 01 27:13:62
丽莎1976 - 月亮亮 回想曲（2014新世纪复刻版）【丽风】【WAV+CUE】.rar: https://url27.ctfile.com/f/9388027-953685906-056d1a?p=559675
(访问密码: 559675)
0.台語(闽南语)經典: https://url27.ctfile.com/d/9388027-29195657-7462f6?p=559675
(访问密码: 559675)
香港电台十大中文金曲奖 35CD: https://url27.ctfile.com/d/9388027-30239874-fc92c2?p=559675
(访问密码: 559675)
歌林巨星經典復刻盤48CD: https://url27.ctfile.com/d/9388027-32937340-a3197c?p=559675
(访问密码: 559675)
000.华语男歌星: https://url27.ctfile.com/d/9388027-43778451-4c872e?p=559675
(访问密码: 559675)
00.华语女歌星: https://url27.ctfile.com/d/9388027-43778454-119642?p=559675
(访问密码: 559675)
01.陈-: https://url27.ctfile.com/d/9388027-43964988-741127?p=559675
(访问密码: 559675)
02.林-: https://url27.ctfile.com/d/9388027-43964997-3afab5?p=559675
(访问密码: 559675)
06. 杨-: https://url27.ctfile.com/d/9388027-43965003-757080?p=559675
(访问密码: 559675)
04. 刘--: https://url27.ctfile.com/d/9388027-43965009-c66160?p=559675
(访问密码: 559675)
05. 李-: https://url27.ctfile.com/d/9388027-43965012-6f74a4?p=559675
(访问密码: 559675)
03. 张-: https://url27.ctfile.com/d/9388027-43965057-d5f303?p=559675
(访问密码: 559675)
07. 蔡-: https://url27.ctfile.com/d/9388027-43965060-3c929d?p=559675
(访问密码: 559675)
08. 邓-: https://url27.ctfile.com/d/9388027-43965063-469c75?p=559675
(访问密码: 559675)
09. 叶-: https://url27.ctfile.com/d/9388027-43965066-4f16de?p=559675
(访问密码: 559675)
10.徐-: https://url27.ctfile.com/d/9388027-43965135-039e26?p=559675
(访问密码: 559675)
11. 王-: https://url27.ctfile.com/d/9388027-43965138-d07af7?p=559675
(访问密码: 559675)
12. 梁-如梦: https://url27.ctfile.com/d/9388027-43965141-3469ce?p=559675
(访问密码: 559675)
13. 周-: https://url27.ctfile.com/d/9388027-43965147-28ece7?p=559675
(访问密码: 559675)
14. 许-: https://url27.ctfile.com/d/9388027-43965150-e09221?p=559675
(访问密码: 559675)
15. 黄--: https://url27.ctfile.com/d/9388027-43965153-916709?p=559675
(访问密码: 559675)
16. 彭-: https://url27.ctfile.com/d/9388027-43965156-73a0cf?p=559675
(访问密码: 559675)
17.郑--: https://url27.ctfile.com/d/9388027-43965165-001db6?p=559675
(访问密码: 559675)
18. 谢--: https://url27.ctfile.com/d/9388027-43965171-eca6b3?p=559675
(访问密码: 559675)
19 江--: https://url27.ctfile.com/d/9388027-43965456-49f54b?p=559675
(访问密码: 559675)
20. 潘-: https://url27.ctfile.com/d/9388027-43965486-a7d5b9?p=559675
(访问密码: 559675)
27.阿杜-阿牛-阿雅: https://url27.ctfile.com/d/9388027-43965555-b3ee72?p=559675
(访问密码: 559675)
21. 罗-: https://url27.ctfile.com/d/9388027-43965570-59a4fa?p=559675
(访问密码: 559675)
22 苏-: https://url27.ctfile.com/d/9388027-43965576-187c3c?p=559675
(访问密码: 559675)
原文：[链接](https://blog.sina.com.cn/s/blog_1647c7e76010313ok.html)